<mxfile host="app.diagrams.net" modified="2023-10-21T10:13:13.701Z" agent="Mozilla/5.0 (X11; Linux x86_64; rv:109.0) Gecko/20100101 Firefox/118.0" version="22.0.6" etag="LOZOaGD4IzmpGf8Nj0aS" type="github">
  <diagram name="Page-1" id="9NMVwhv2yWC93qOliZIX">
    <mxGraphModel>
      <root>
        <mxCell id="0" />
        <mxCell id="1" parent="0" />
      </root>
    </mxGraphModel>
  </diagram>
</mxfile>
